<?xml version="1.0" encoding="utf-8"?>
<!-- Generator: Adobe Illustrator 16.0.0, SVG Export Plug-In . SVG Version: 6.00 Build 0)  -->
<!DOCTYPE svg PUBLIC "-//W3C//DTD SVG 1.1//EN" "http://www.w3.org/Graphics/SVG/1.1/DTD/svg11.dtd">
<svg version="1.1" xmlns="http://www.w3.org/2000/svg" xmlns:xlink="http://www.w3.org/1999/xlink" x="0px" y="0px"
	 width="1190.55px" height="1683.781px" viewBox="0 0 1190.55 1683.781" enable-background="new 0 0 1190.55 1683.781"
	 xml:space="preserve">
<g id="Layer_3_1_">
	<circle fill="#1C1C1C" cx="595.275" cy="846.91" r="347.5"/>
</g>
<g id="Layer_1">
	<g id="Layer_1_1_" display="none">
		
			<image display="inline" overflow="visible" enable-background="new    " width="2048" height="2048" xlink:href="4848E90E.png"  transform="matrix(0.5454 0 0 0.5454 37 283.7803)">
		</image>
	</g>
	<g id="Layer_2" display="none">
		<polygon display="inline" points="367.333,790.614 367.333,657.947 463.333,657.947 670.333,949.281 670.333,721.586 659,693.851 
			658.333,904.281 468,642.614 352,642.614 352,769.146 		"/>
		<polygon display="inline" points="735.332,879.488 749.333,913.542 749.333,1041.447 641.667,1041.447 443,764.114 443,1041.447 
			431,1041.447 431,726.447 646.333,1027.447 735,1027.447 		"/>
		<polyline display="inline" points="549.317,923.117 522.667,1000.115 475.333,1019.781 524.701,888.751 		"/>
		<polyline display="inline" points="568.609,772.211 617.5,642.447 678.5,642.447 841,1041.447 811.5,1041.447 656,663.28 
			639.25,663.28 590.802,803.257 		"/>
	</g>
	<g id="Layer_3">
		<polygon fill="#FFFFFF" points="586.57,833.004 669.109,949.169 669.109,721.476 657.775,693.74 657.109,904.169 592.624,815.516 
					"/>
		<polygon fill="#FFFFFF" points="581.667,826.104 462.108,657.837 366.108,657.837 366.108,790.504 350.775,776.837 
			350.775,642.504 466.775,642.504 587.686,808.727 		"/>
		<polygon fill="#FFFFFF" points="734.105,879.544 748.109,913.599 748.109,1041.503 640.441,1041.503 441.775,764.171 
			441.775,1041.503 429.775,1041.503 429.775,726.504 645.109,1027.503 733.775,1027.503 		"/>
		<polygon fill="#FFFFFF" points="548.092,923.173 513.521,1021.837 466.187,1041.503 523.476,888.808 		"/>
		<polygon fill="#FFFFFF" points="590.055,801.931 638.025,663.337 654.775,663.337 810.275,1041.503 839.775,1041.503 
			677.275,642.504 616.275,642.504 567.708,771.408 		"/>
		<polygon display="none" fill="#FFFFFF" points="551.625,933.962 551.625,935.837 548.092,935.837 544.91,932.314 593.358,792.337 
			596.189,808.074 594.717,809.462 577.104,860.349 		"/>
		<polygon display="none" fill="#FFFFFF" points="632.417,859.783 633.871,860.966 632.189,863.033 627.941,862.669 
			542.474,745.945 556.025,754.228 556.4,755.966 587.47,798.399 		"/>
	</g>
	<g id="Layer_4" display="none">
		<polygon display="inline" fill="#FFFFFF" points="366.108,790.39 366.108,657.724 462.108,657.724 669.109,949.056 
			669.109,721.363 657.775,693.627 657.109,904.056 466.775,642.39 350.775,642.39 350.775,776.724 		"/>
		<polygon display="inline" fill="#FFFFFF" points="734.105,879.431 748.109,913.486 748.109,1041.39 640.441,1041.39 
			441.775,764.057 441.775,1041.39 429.775,1041.39 429.775,726.391 645.109,1027.39 733.775,1027.39 		"/>
		<polyline display="inline" fill="#FFFFFF" points="548.092,923.06 513.521,1021.724 466.187,1041.39 523.476,888.695 		"/>
		<polyline display="inline" fill="#FFFFFF" points="567.384,772.155 616.275,642.39 677.275,642.39 839.775,1041.39 
			810.275,1041.39 654.775,663.224 638.025,663.224 589.577,803.201 		"/>
		<polygon display="inline" fill="#FFFFFF" points="551.625,933.849 551.625,935.724 548.092,935.724 544.91,932.201 
			593.358,792.224 596.189,807.961 594.717,809.349 577.104,860.236 		"/>
		<polygon display="inline" fill="#FFFFFF" points="632.417,859.669 633.871,860.853 632.189,862.919 627.941,862.556 
			542.474,745.833 556.025,754.115 556.4,755.852 587.47,798.287 		"/>
	</g>
	<rect y="390.447" fill="none" width="1190.55" height="1190.551"/>
</g>
<g id="Layer_2_1_" display="none">
</g>
</svg>
